<svg viewBox="0 0 500 194" fill="none" xmlns="http://www.w3.org/2000/svg">
<g clip-path="url(#clip0_6_39)">
<path d="M276.033 147.239C274.542 165.604 256.026 182.51 236.224 182.584C176.562 182.809 116.898 182.881 57.2367 182.571C31.3563 182.437 13.9711 164.207 13.9294 138.38C13.8855 111.215 13.8703 84.0503 13.9422 56.8857C13.9978 35.8498 25.7587 20.3417 46.0869 14.7864C50.1928 13.6643 54.6339 13.3765 58.9215 13.3701C117.251 13.2837 175.58 13.2724 233.909 13.3392C255.045 13.3633 272.972 28.2455 276.027 48.9213C275.998 82.2788 276.015 114.759 276.033 147.239ZM180.236 50.3507C176.468 49.462 172.703 49.4039 170.278 52.8871C166.326 58.5641 162.735 64.4928 158.861 70.5177C166.374 74.9421 173.467 79.1194 180.809 83.4438C182.741 80.3524 184.175 77.5126 186.109 75.0683C191.404 68.3739 194.189 61.7941 186.494 54.9058C186.376 54.8009 186.622 54.2905 187.617 54.0051C192.363 61.6155 197.11 69.2259 201.764 76.6872C199.468 78.4898 198.167 79.5108 195.694 81.4524C203.346 81.4524 209.471 81.5766 215.584 81.3573C216.961 81.3079 218.851 80.4132 219.555 79.3045C222.917 74.0141 225.951 68.5158 229.557 62.8747C229.195 62.6847 228.832 62.4947 227.771 62.5671C226.415 63.1719 225.06 63.7767 223.405 64.515C221.789 61.6331 220.166 58.9408 218.739 56.1483C216.114 51.0118 212.048 48.6219 206.241 48.8045C199.747 49.0087 193.242 48.8439 186.747 49.0093C184.849 49.0576 182.966 49.6851 180.236 50.3507ZM176.135 101.189C173.245 95.7717 170.481 90.2804 167.374 84.9912C166.62 83.7083 164.737 82.3087 163.366 82.3015C156.912 82.2674 150.455 82.6992 143.564 82.9584C143.71 83.2389 143.857 83.5193 144.471 84.3479C147.954 86.4827 149.234 88.9598 146.328 92.6767C144.923 94.4745 143.863 96.668 143.149 98.8469C142.404 101.12 141.472 103.797 142.026 105.933C143.116 110.13 144.968 114.178 146.89 118.098C149.59 123.606 152.914 128.818 155.463 134.39C157.806 139.513 161.548 142.271 166.966 142.475C173.547 142.723 180.144 142.534 186.838 142.534C186.838 133.904 186.838 125.568 186.838 116.725C178.642 116.725 170.85 116.725 162.984 116.005C162.909 115.528 162.834 115.052 162.992 113.944C165.035 110.556 167.306 107.28 169.051 103.744C170.447 100.918 172.134 100.857 174.811 102.635C175.304 102.39 175.797 102.144 176.135 101.189ZM70.9639 59.4204C60.8282 67.3347 56.2095 78.1296 55.3826 90.5804C54.3025 106.844 57.8192 121.85 71.9723 131.633C88.2 142.85 105.937 143.04 123.767 135.391C130.022 132.707 132.089 126.887 129.582 121.513C127.227 116.464 122.518 115.55 115.96 117.312C109.982 118.918 103.594 120.197 97.4859 119.854C86.4381 119.233 80.2148 110.89 79.2972 97.4189C78.3728 83.8486 84.0053 73.8717 94.1859 71.0538C94.5058 70.9652 94.843 70.9405 95.1656 70.8601C102.957 68.9182 110.27 70.4687 117.51 73.5479C123.898 76.2645 129.663 72.4212 130.109 65.4796C130.443 60.2779 128.184 56.5791 122.029 54.2435C104.494 47.5887 87.5193 48.3589 70.9639 59.4204ZM231.87 129.36C234.411 124.459 236.953 119.559 239.495 114.659C228.434 118.94 217.708 116.453 207.219 116.884C206.896 114.551 206.662 112.865 206.236 109.784C202.322 116.846 199.08 122.615 195.951 128.445C195.555 129.184 195.382 130.439 195.74 131.123C198.877 137.129 202.158 143.059 206.046 150.206C206.593 146.995 206.911 145.129 207.3 142.845C209.278 142.845 211.254 142.895 213.226 142.831C215.381 142.761 217.557 142.747 219.682 142.427C226.796 141.358 228.612 135.148 231.87 129.36ZM218.522 91.0457C216.299 92.4494 214.075 93.8531 211.545 95.4507C214.789 101.515 217.85 107.352 221.056 113.108C221.543 113.981 222.69 115.029 223.561 115.057C229.624 115.248 235.826 114.804 240.174 110.129C242.02 108.145 243.58 104.041 242.775 101.795C240.362 95.0595 236.719 88.7651 233.408 81.9981C228.18 85.1944 223.674 87.9485 218.522 91.0457Z" fill="#0D7351"/>
<path d="M422.614 109.404C421.624 114.401 418.018 114.594 414.434 114.609C403.273 114.659 392.111 114.626 380.949 114.626C379.143 114.626 377.337 114.626 375.532 114.626C375.573 121.504 380.123 126.634 387.506 126.812C393.875 126.966 400.417 126.178 406.635 124.739C413.717 123.101 417.789 123.789 419.894 128.689C422.22 134.104 419.838 139.83 413.533 142.376C398.301 148.528 382.957 148.684 368.107 141.322C353.554 134.107 346.676 117.586 350.456 100.48C353.994 84.4734 367.14 72.9451 382.946 71.9876C403.6 70.7363 417.284 79.9268 421.478 98.1101C422.293 101.644 422.293 105.365 422.614 109.404ZM375.939 96.8519C375.515 98.3955 375.092 99.939 374.579 101.808C383.691 101.808 392.235 101.808 400.784 101.808C400.615 95.0859 397.725 90.6549 392.748 89.2203C386.062 87.2932 380.529 89.5987 375.939 96.8519Z" fill="#0D7351"/>
<path d="M475.302 146.348C468.795 145.824 462.489 146.047 456.681 144.453C445.263 141.32 439.542 131.915 439.17 117.243C438.968 109.278 439.134 101.304 439.134 94.3309C434.41 92.4714 430.084 91.3885 426.555 89.0846C425.073 88.1167 424.795 84.564 424.805 82.19C424.833 75.6059 427.4 74.0043 439.14 72.9165C439.14 70.043 439.012 67.091 439.164 64.1534C439.602 55.6416 444.302 51.1092 452.434 51.2053C460.902 51.3054 464.916 55.4331 465.189 64.4015C465.27 67.0437 465.202 69.6903 465.202 73.4289C469.768 73.4289 474.026 73.1357 478.227 73.4966C484.752 74.057 487.331 77.2992 487.013 83.7593C486.755 88.9875 484.458 91.8206 479.15 92.3228C474.742 92.7397 470.264 92.4081 465.548 92.4081C465.548 101.395 465.155 109.531 465.68 117.607C466.054 123.357 470.557 126.226 476.738 125.756C478.057 125.655 479.349 125.224 480.668 125.073C486.339 124.426 487.897 125.692 488.449 131.302C489.418 141.152 486.125 145.027 475.302 146.348Z" fill="#0D7351"/>
<path d="M305.613 134.227C304.324 128.554 302.377 123.226 302.281 117.864C301.905 96.878 302.007 75.8808 302.151 54.8893C302.227 43.8452 309.963 38.4753 320.276 41.9325C325.529 43.6936 328.047 47.2651 328.083 53.8926C328.191 73.2184 328.141 92.5452 328.164 111.872C328.167 113.703 328.104 115.551 328.32 117.362C329.127 124.103 331.925 126.152 338.672 125.593C340.294 125.459 342.518 125.896 343.582 126.956C347.256 130.62 345.028 142.371 340.462 144.791C329.698 150.496 311.974 145.261 305.613 134.227Z" fill="#0D7351"/>
<path d="M276.252 146.863C276.015 114.759 275.998 82.2788 276 49.3153C276.346 50.7739 276.954 52.7152 276.958 54.6579C277.024 83.4514 277.019 112.245 276.99 141.039C276.989 142.855 276.652 144.671 276.252 146.863Z" fill="#0D7351"/>
<path d="M71.2516 59.202C87.5193 48.3589 104.494 47.5887 122.029 54.2435C128.184 56.5791 130.443 60.2779 130.109 65.4796C129.663 72.4212 123.898 76.2645 117.51 73.5479C110.27 70.4686 102.957 68.9182 95.1656 70.8601C94.843 70.9405 94.5058 70.9652 94.1859 71.0538C84.0052 73.8717 78.3728 83.8486 79.2971 97.4188C80.2148 110.89 86.4381 119.233 97.4859 119.854C103.594 120.197 109.982 118.918 115.96 117.312C122.518 115.55 127.227 116.464 129.582 121.513C132.089 126.887 130.022 132.707 123.767 135.391C105.937 143.04 88.2001 142.85 71.9723 131.633C57.8192 121.85 54.3025 106.844 55.3826 90.5804C56.2095 78.1296 60.8282 67.3347 71.2516 59.202Z" fill="#F2F5F3"/>
<path d="M163.057 116.725C170.85 116.725 178.643 116.725 186.838 116.725C186.838 125.568 186.838 133.904 186.838 142.534C180.144 142.534 173.547 142.723 166.966 142.475C161.548 142.271 157.806 139.513 155.463 134.39C152.914 128.818 149.59 123.606 146.89 118.098C144.968 114.178 143.116 110.13 142.026 105.933C141.472 103.798 142.404 101.12 143.149 98.8469C143.863 96.668 144.923 94.4745 146.328 92.6767C149.234 88.9599 147.954 86.4828 144.237 83.8651C144.004 83.3823 144 82.9648 144 82.9648C150.455 82.6992 156.912 82.2675 163.366 82.3015C164.737 82.3088 166.62 83.7083 167.374 84.9912C170.481 90.2804 173.245 95.7717 175.758 101.61C175.08 102.076 174.777 102.121 174.475 102.166C172.134 100.857 170.447 100.918 169.051 103.744C167.306 107.28 165.035 110.556 162.46 114.436C157.194 114.719 152.46 114.511 147.726 114.303C147.698 114.826 147.67 115.349 147.642 115.873C152.781 116.157 157.919 116.441 163.057 116.725Z" fill="#F2F5F3"/>
<path d="M231.691 129.684C228.612 135.148 226.796 141.358 219.682 142.427C217.557 142.747 215.381 142.761 213.226 142.831C211.254 142.895 209.278 142.845 207.3 142.845C206.911 145.129 206.593 146.995 206.046 150.206C202.158 143.059 198.877 137.129 195.74 131.123C195.382 130.439 195.555 129.184 195.951 128.445C199.08 122.615 202.322 116.846 206.236 109.784C206.662 112.865 206.896 114.551 207.219 116.884C217.708 116.453 228.434 118.94 239.495 114.659C236.953 119.559 234.411 124.459 231.691 129.684Z" fill="#F0F5F2"/>
<path d="M229.102 63.0915C225.951 68.5158 222.917 74.0141 219.555 79.3045C218.851 80.4132 216.961 81.3079 215.584 81.3573C209.471 81.5766 203.346 81.4524 195.694 81.4524C198.167 79.5108 199.468 78.4898 201.764 76.6873C197.11 69.2259 192.363 61.6155 187.166 54.0183C186.715 54.0314 186.504 53.9812 186.667 53.6198C186.216 52.8129 185.602 52.3672 185.009 51.9437C185.03 51.9657 185.08 52.0005 184.946 51.6801C184.186 51.2237 183.558 51.0877 182.965 50.9714C182.999 50.991 183.072 51.0187 183.009 50.6642C182.269 50.1853 181.59 50.061 180.951 49.9668C180.99 49.997 181.076 50.0471 181.076 50.0471C182.966 49.6851 184.849 49.0576 186.747 49.0093C193.242 48.8439 199.747 49.0087 206.241 48.8045C212.048 48.6219 216.114 51.0118 218.739 56.1483C220.166 58.9409 221.789 61.6331 223.405 64.5151C225.06 63.7768 226.415 63.1719 228.272 62.6378C228.883 62.8362 228.993 62.9638 229.102 63.0915Z" fill="#F2F5F3"/>
<path d="M186.504 53.9812C186.504 53.9812 186.715 54.0314 186.707 54.0004C186.622 54.2905 186.376 54.801 186.494 54.9058C194.189 61.7941 191.404 68.3739 186.109 75.0683C184.175 77.5127 182.741 80.3524 180.809 83.4438C173.467 79.1194 166.374 74.9421 158.861 70.5177C162.735 64.4928 166.326 58.5641 170.278 52.8871C172.703 49.404 176.468 49.462 180.656 50.1989C181.076 50.0471 180.99 49.997 181.01 50.3849C181.711 50.8548 182.391 50.9368 183.072 51.0187C183.072 51.0187 182.999 50.991 182.999 51.4567C183.693 51.9483 184.386 51.9744 185.08 52.0005C185.08 52.0005 185.03 51.9657 184.59 52.2295C184.935 52.9893 185.72 53.4853 186.504 53.9812Z" fill="#F1F5F3"/>
<path d="M218.845 90.8742C223.674 87.9485 228.18 85.1944 233.408 81.9981C236.719 88.7651 240.362 95.0595 242.775 101.795C243.58 104.041 242.02 108.145 240.174 110.129C235.826 114.804 229.624 115.248 223.561 115.057C222.69 115.029 221.543 113.981 221.056 113.108C217.85 107.352 214.789 101.515 211.545 95.4507C214.075 93.8531 216.299 92.4494 218.845 90.8742Z" fill="#F1F5F3"/>
<path d="M163.021 116.365C157.919 116.441 152.781 116.157 147.642 115.873C147.67 115.349 147.698 114.826 147.726 114.303C152.46 114.511 157.194 114.719 162.343 114.751C162.834 115.052 162.909 115.528 163.021 116.365Z" fill="#0D7351"/>
<path d="M174.643 102.401C174.777 102.121 175.08 102.076 175.836 101.965C175.797 102.144 175.304 102.39 174.643 102.401Z" fill="#F1F5F3"/>
<path d="M228.621 62.5066C228.832 62.4947 229.195 62.6847 229.33 62.9831C228.993 62.9638 228.883 62.8362 228.621 62.5066Z" fill="#F2F5F3"/>
<path d="M143.782 82.9616C144 82.9648 144.004 83.3823 144.003 83.591C143.857 83.5193 143.71 83.2389 143.782 82.9616Z" fill="#F1F5F3"/>
<path d="M184.946 51.6801C184.386 51.9744 183.693 51.9483 182.965 51.437C183.558 51.0877 184.186 51.2237 184.946 51.6801Z" fill="#0D7351"/>
<path d="M186.667 53.6198C185.72 53.4853 184.935 52.9893 184.569 52.2075C185.602 52.3672 186.216 52.8128 186.667 53.6198Z" fill="#0D7351"/>
<path d="M183.009 50.6642C182.391 50.9368 181.711 50.8548 180.971 50.3547C181.59 50.061 182.269 50.1853 183.009 50.6642Z" fill="#0D7351"/>
</g>
<defs>
<clipPath id="clip0_6_39">
<rect width="500" height="194" fill="white"/>
</clipPath>
</defs>
</svg>
